<svg width="48" height="48" viewBox="0 0 48 48" fill="none" xmlns="http://www.w3.org/2000/svg">
<circle cx="24" cy="24" r="24" fill="#F0F0F2"/>
<circle cx="24" cy="24" r="24" fill="url(#paint0_radial)"/>
<path d="M24 15.875C19.5129 15.875 15.875 19.5129 15.875 24C15.875 28.4871 19.5129 32.125 24 32.125C28.4871 32.125 32.125 28.4871 32.125 24C32.125 19.5129 28.4871 15.875 24 15.875ZM27.75 25.25H24C23.8342 25.25 23.6753 25.1842 23.5581 25.0669C23.4408 24.9497 23.375 24.7908 23.375 24.625V19C23.375 18.8342 23.4408 18.6753 23.5581 18.5581C23.6753 18.4408 23.8342 18.375 24 18.375C24.1658 18.375 24.3247 18.4408 24.4419 18.5581C24.5592 18.6753 24.625 18.8342 24.625 19V24H27.75C27.9158 24 28.0747 24.0658 28.1919 24.1831C28.3092 24.3003 28.375 24.4592 28.375 24.625C28.375 24.7908 28.3092 24.9497 28.1919 25.0669C28.0747 25.1842 27.9158 25.25 27.75 25.25Z" fill="#DB162F"/>
<defs>
<radialGradient id="paint0_radial" cx="0" cy="0" r="1" gradientUnits="userSpaceOnUse" gradientTransform="translate(24 24) rotate(90) scale(24)">
<stop stop-color="white" stop-opacity="0.8"/>
<stop offset="1" stop-color="#F2F2F4" stop-opacity="0"/>
</radialGradient>
</defs>
</svg>
