<svg width="49" height="48" viewBox="0 0 49 48" fill="none" xmlns="http://www.w3.org/2000/svg">
<circle cx="24.5" cy="24" r="24" fill="#F0F0F2"/>
<circle cx="24.5" cy="24" r="24" fill="url(#paint0_radial)"/>
<g clip-path="url(#clip0)">
<g filter="url(#filter0_d)">
<path d="M29.0432 15.75C26 15.75 24.5 18.75 24.5 18.75C24.5 18.75 23 15.75 19.9569 15.75C17.4838 15.75 15.5253 17.8191 15.5 20.288C15.4485 25.4128 19.5655 29.0573 24.0782 32.1202C24.2026 32.2048 24.3496 32.2501 24.5 32.2501C24.6505 32.2501 24.7975 32.2048 24.9219 32.1202C29.4341 29.0573 33.5511 25.4128 33.5 20.288C33.4747 17.8191 31.5163 15.75 29.0432 15.75Z" stroke="#DB162F" stroke-linecap="round" stroke-linejoin="round"/>
</g>
<path d="M14.75 24H20L22.25 19.5L24.5 27L26.75 22.5L28.25 25.5H34.25" stroke="#DB162F" stroke-linecap="round" stroke-linejoin="round"/>
</g>
<defs>
<filter id="filter0_d" x="12.9996" y="13.25" width="27.001" height="25.5001" filterUnits="userSpaceOnUse" color-interpolation-filters="sRGB">
<feFlood flood-opacity="0" result="BackgroundImageFix"/>
<feColorMatrix in="SourceAlpha" type="matrix" values="0 0 0 0 0 0 0 0 0 0 0 0 0 0 0 0 0 0 127 0"/>
<feOffset dx="2" dy="2"/>
<feGaussianBlur stdDeviation="2"/>
<feColorMatrix type="matrix" values="0 0 0 0 1 0 0 0 0 1 0 0 0 0 1 0 0 0 1 0"/>
<feBlend mode="normal" in2="BackgroundImageFix" result="effect1_dropShadow"/>
<feBlend mode="normal" in="SourceGraphic" in2="effect1_dropShadow" result="shape"/>
</filter>
<radialGradient id="paint0_radial" cx="0" cy="0" r="1" gradientUnits="userSpaceOnUse" gradientTransform="translate(24.5 24) rotate(90) scale(24)">
<stop stop-color="white" stop-opacity="0.8"/>
<stop offset="1" stop-color="#F2F2F4" stop-opacity="0"/>
</radialGradient>
<clipPath id="clip0">
<rect width="24" height="24" fill="white" transform="translate(12.5 12)"/>
</clipPath>
</defs>
</svg>
