<svg width="49" height="48" viewBox="0 0 49 48" fill="none" xmlns="http://www.w3.org/2000/svg">
<circle cx="24.5" cy="24" r="24" fill="#F0F0F2"/>
<circle cx="24.5" cy="24" r="24" fill="url(#paint0_radial)"/>
<path d="M25 14.25C21.2734 14.25 18.25 17.1277 18.25 20.6719C18.25 24.75 22.75 31.2127 24.4023 33.4448C24.4709 33.5391 24.5608 33.6157 24.6647 33.6686C24.7686 33.7215 24.8835 33.749 25 33.749C25.1165 33.749 25.2314 33.7215 25.3353 33.6686C25.4392 33.6157 25.5291 33.5391 25.5977 33.4448C27.25 31.2136 31.75 24.7533 31.75 20.6719C31.75 17.1277 28.7266 14.25 25 14.25Z" stroke="#DB162F" stroke-linecap="round" stroke-linejoin="round"/>
<path d="M25 23.25C26.2426 23.25 27.25 22.2426 27.25 21C27.25 19.7574 26.2426 18.75 25 18.75C23.7574 18.75 22.75 19.7574 22.75 21C22.75 22.2426 23.7574 23.25 25 23.25Z" stroke="#DB162F" stroke-linecap="round" stroke-linejoin="round"/>
<defs>
<radialGradient id="paint0_radial" cx="0" cy="0" r="1" gradientUnits="userSpaceOnUse" gradientTransform="translate(24.5 24) rotate(90) scale(24)">
<stop stop-color="white" stop-opacity="0.8"/>
<stop offset="1" stop-color="#F2F2F4" stop-opacity="0"/>
</radialGradient>
</defs>
</svg>
