<svg width="46" height="46" viewBox="0 0 46 46" fill="none" xmlns="http://www.w3.org/2000/svg">
<g clip-path="url(#clip0)">
<path d="M28.7837 21.467L25.0209 17.7039C24.891 17.574 24.6745 17.574 24.5446 17.7039L0.890162 41.3608C0.760246 41.4907 0.760246 41.7072 0.890162 41.8372L4.65292 45.6003C4.78284 45.7303 4.99937 45.7303 5.12928 45.6003L28.7837 21.9435C28.9136 21.8135 28.9136 21.6018 28.7837 21.467Z" fill="#DDDCE5"/>
<path d="M25.4684 17.3045L29.1878 21.0244C29.3178 21.1543 29.5343 21.1543 29.6642 21.0244L30.9971 19.6914C31.127 19.5567 31.127 19.3449 30.9971 19.215L27.2776 15.4952C27.1477 15.3652 26.9311 15.3652 26.8012 15.4952L25.4684 16.8281C25.3337 16.9581 25.3337 17.1698 25.4684 17.3045Z" fill="#DDDCE5"/>
<path d="M27.6625 15.1053L31.382 18.8252C31.5119 18.9551 31.7284 18.9551 31.8583 18.8252L33.1912 17.4922C33.3211 17.3623 33.3211 17.1457 33.1912 17.0158L29.4717 13.2959C29.3418 13.166 29.1253 13.166 28.9954 13.2959L27.6625 14.6289C27.5326 14.7588 27.5326 14.9754 27.6625 15.1053Z" fill="#DDDCE5"/>
<path d="M45.2061 0.639834C45.2061 0.452157 45.0569 0.302979 44.8692 0.302979H43.7C43.6086 0.302979 43.5268 0.336664 43.4594 0.399223C43.3969 0.461782 43.3584 0.548402 43.3584 0.639834V4.4463H40.9188C40.8274 4.4463 40.7456 4.47998 40.6782 4.54254L31.2425 13.9889C31.1125 14.1189 31.1125 14.3354 31.2425 14.4653L32.0701 15.293C32.2 15.423 32.4165 15.423 32.5464 15.293L41.5492 6.28938H44.8741C45.0617 6.28938 45.2109 6.1402 45.2109 5.95252L45.2061 0.639834Z" fill="#DDDCE5"/>
<path d="M22.3504 18.5894L18.5877 22.3525C18.4578 22.4825 18.4578 22.699 18.5877 22.829L41.655 45.8987C41.7849 46.0287 42.0015 46.0287 42.1314 45.8987L45.8941 42.1356C46.0241 42.0056 46.0241 41.7891 45.8941 41.6592L22.8268 18.5894C22.6969 18.4595 22.4852 18.4595 22.3504 18.5894Z" fill="#DDDCE5"/>
<path d="M20.0985 16.3806L16.3791 20.1004C16.2491 20.2304 16.2491 20.4469 16.3791 20.5769L17.7119 21.9098C17.8418 22.0398 18.0583 22.0398 18.1883 21.9098L21.9077 18.19C22.0376 18.0601 22.0376 17.8435 21.9077 17.7136L20.5749 16.3806C20.4401 16.2459 20.2284 16.2459 20.0985 16.3806Z" fill="#DDDCE5"/>
<path d="M18.3759 14.1814C18.246 14.0515 18.0295 14.0515 17.8996 14.1814L14.1801 17.9013C14.0502 18.0312 14.0502 18.2478 14.1801 18.3777L15.513 19.7107C15.6429 19.8406 15.8594 19.8406 15.9893 19.7107L19.7088 15.9908C19.8387 15.8609 19.8387 15.6443 19.7088 15.5144L18.3759 14.1814Z" fill="#DDDCE5"/>
<path d="M6.30854 7.50729L14.6376 15.8372C14.7675 15.9672 14.9841 15.9672 15.114 15.8372L15.8357 15.1154C15.9657 14.9855 15.9657 14.7689 15.8357 14.639L7.50666 6.30905C8.54599 4.71139 8.33908 2.56033 6.97256 1.19366C5.37988 -0.399188 2.78636 -0.399188 1.19368 1.19366C-0.398993 2.7865 -0.398993 5.38029 1.19368 6.97313C2.56021 8.3398 4.71105 8.54673 6.30854 7.50729Z" fill="#DDDCE5"/>
<path d="M6.04837 2.12212C7.131 3.20487 7.131 4.96133 6.04837 6.04889C4.96573 7.13164 3.20945 7.13164 2.12201 6.04889C1.03937 4.96614 1.03937 3.20968 2.12201 2.12212C3.20464 1.03937 4.96092 1.03937 6.04837 2.12212Z" fill="white"/>
</g>
<defs>
<clipPath id="clip0">
<rect width="46" height="46" fill="white"/>
</clipPath>
</defs>
</svg>
