<svg width="32" height="56" viewBox="0 0 32 56" fill="none" xmlns="http://www.w3.org/2000/svg">
<g clip-path="url(#clip0)">
<path d="M26.0181 7.75368C25.7671 3.87197 22.9137 0.946199 22.5902 0.622723C21.755 -0.207694 20.379 -0.207694 19.5631 0.637207C18.7327 1.47728 18.7375 2.82912 19.5776 3.66436C20.099 4.18096 21.6198 6.09285 21.7502 8.02888C21.9626 11.3312 18.9741 13.3735 18.1195 13.8852C15.9711 13.0452 13.4364 13.4894 11.6983 15.2274C9.92157 17.0041 9.49671 19.6209 10.4189 21.7983C10.4189 21.8032 10.414 21.8032 10.414 21.808C9.05253 24.0772 2.69405 27.7078 0.424888 35.7271C-1.84427 43.7464 5.56671 56.3041 7.99037 54.7881C10.4092 53.2769 9.95537 46.4694 8.89803 42.0808C7.83587 37.6921 9.95537 30.735 13.1322 25.4387C13.2432 25.2552 13.3495 25.0766 13.4508 24.9076C15.6572 25.9118 18.3513 25.5111 20.1666 23.6957C22.0157 21.8466 22.3971 19.0995 21.3253 16.8689C21.7936 16.5213 22.3295 16.0772 22.8703 15.5364C24.5456 13.8708 26.2499 11.2733 26.0181 7.75368ZM17.067 20.5962C16.4394 21.2238 15.4255 21.2238 14.7979 20.5962C14.1702 19.9685 14.1702 18.9546 14.7979 18.327C15.4255 17.6994 16.4394 17.6994 17.067 18.327C17.6947 18.9546 17.6947 19.9734 17.067 20.5962Z" fill="#DDDCE5"/>
<path d="M11.0465 14.5757C11.5824 14.0397 12.2004 13.6149 12.8618 13.2914C11.679 12.3355 10.0857 10.5829 10.2402 8.14475C10.3899 5.83697 12.3935 3.7899 12.408 3.78024C12.4128 3.77541 12.4128 3.77541 12.4176 3.77058C13.2481 2.94017 13.2529 1.58833 12.4273 0.753081C11.5969 -0.0869914 10.2402 -0.0918194 9.40014 0.738597C9.39532 0.743425 9.39049 0.748253 9.38566 0.757909C8.98976 1.15863 6.22332 4.05061 5.97709 7.87439C5.71638 11.8816 7.95174 14.6819 9.80087 16.2944C10.1147 15.6668 10.5299 15.0874 11.0465 14.5757Z" fill="#DDDCE5"/>
<path d="M16.1401 21.7694C16.1401 21.7694 16.1932 21.7452 16.2704 21.7114C16.0387 21.4652 16.1401 21.7694 16.1401 21.7694Z" fill="#DDDCE5"/>
<path d="M22.0447 22.6868C21.7309 23.2903 21.3205 23.8503 20.8232 24.3524C20.2487 24.927 19.5776 25.3711 18.8631 25.7043C22.0399 31.0006 24.1594 37.9577 23.0972 42.3464C22.0399 46.735 21.5861 53.5425 24.0049 55.0537C26.4237 56.5649 33.8395 44.0072 31.5704 35.9927C29.4992 28.659 24.0097 24.9994 22.0447 22.6868Z" fill="#DDDCE5"/>
</g>
<defs>
<clipPath id="clip0">
<rect width="32" height="55.1792" fill="white"/>
</clipPath>
</defs>
</svg>
