<svg width="58" height="27" viewBox="0 0 58 27" fill="none" xmlns="http://www.w3.org/2000/svg">
<path d="M28.6276 6.03131C38.3892 6.03131 55.5586 7.96806 58 7.62814C56.6419 7.19336 53.6509 6.13802 50.4209 4.37518C46.024 1.97597 42.0692 -0.201896 37.4573 0.0154957C33.1639 0.217077 29.6313 3.06293 29.1613 3.45818C28.6913 3.06293 25.1587 0.221029 20.8653 0.0154957C16.2534 -0.201896 12.2986 1.97597 7.90565 4.37518C4.38495 6.29613 1.14702 7.37913 0 7.73091C3.14633 8.16174 18.862 6.03131 28.6276 6.03131Z" fill="#DDDCE5"/>
<path d="M55.9211 9.17383C54.0691 9.91296 44.3792 20.5454 29.0498 20.5454C13.7244 20.5454 4.54427 10.407 1.96747 9.38727C2.3976 10.0236 9.14428 26.996 29.0817 26.996C49.019 26.996 56.4109 9.31612 56.4109 9.31612C56.4109 9.31612 56.2357 9.26869 55.9211 9.17383Z" fill="#DDDCE5"/>
<path d="M3.68796 11.1343C3.68796 11.1343 5.50407 11.2331 8.22425 11.3833C9.58235 11.4544 11.1675 11.5374 12.8681 11.6283C13.7164 11.6679 14.5966 11.6995 15.4847 11.7509C16.3768 11.8062 17.2809 11.8378 18.1889 11.8655C19.093 11.905 20.0011 11.9406 20.8932 11.9801C21.7853 12.0236 22.6615 12.0355 23.5138 12.0631C24.3621 12.0908 25.1865 12.1185 25.9632 12.1461C26.7438 12.1817 27.4806 12.1936 28.1576 12.2054C29.5197 12.2252 30.6548 12.2766 31.4473 12.2963C32.2439 12.324 32.6979 12.3517 32.6979 12.3517C32.6979 12.3517 32.2439 12.3951 31.4513 12.4505C30.6588 12.4979 29.5237 12.5928 28.1616 12.66C27.8191 12.6797 27.4646 12.6955 27.0982 12.7153C26.7318 12.7311 26.3495 12.7272 25.9592 12.7351C25.1786 12.743 24.3542 12.7509 23.5019 12.7588C22.6496 12.7509 21.7654 12.7904 20.8733 12.743C19.9772 12.7153 19.0691 12.6837 18.1611 12.656C17.253 12.6204 16.345 12.5809 15.4489 12.5137C14.5567 12.4584 13.6766 12.3833 12.8243 12.324C11.972 12.2687 11.1555 12.1619 10.3749 12.0868C9.59828 12.0038 8.86148 11.9327 8.18442 11.8378C6.8303 11.6639 5.70718 11.4861 4.92259 11.3596C4.52831 11.3003 4.22164 11.241 4.01454 11.2015C3.79947 11.154 3.68796 11.1343 3.68796 11.1343Z" fill="#DDDCE5"/>
</svg>
