<svg width="48" height="48" viewBox="0 0 48 48" fill="none" xmlns="http://www.w3.org/2000/svg">
<circle cx="24" cy="24" r="24" fill="#F0F0F2"/>
<circle cx="24" cy="24" r="24" fill="url(#paint0_radial)"/>
<path d="M24.5 13C20.089 13 16.5 16.4326 16.5 20.6503C16.5 22.6589 17.4155 25.33 19.221 28.5896C20.671 31.2067 22.3485 33.5733 23.221 34.7508C23.3684 34.952 23.5612 35.1156 23.7837 35.2284C24.0061 35.3412 24.2521 35.4 24.5015 35.4C24.7509 35.4 24.9969 35.3412 25.2193 35.2284C25.4418 35.1156 25.6346 34.952 25.782 34.7508C26.653 33.5733 28.332 31.2067 29.782 28.5896C31.5845 25.331 32.5 22.6599 32.5 20.6503C32.5 16.4326 28.911 13 24.5 13ZM24.5 24.2004C23.8671 24.2004 23.2484 24.0127 22.7222 23.6611C22.1959 23.3095 21.7858 22.8097 21.5436 22.2249C21.3014 21.6402 21.238 20.9967 21.3615 20.376C21.485 19.7552 21.7897 19.185 22.2373 18.7375C22.6848 18.2899 23.255 17.9851 23.8757 17.8617C24.4965 17.7382 25.1399 17.8016 25.7246 18.0438C26.3093 18.286 26.8091 18.6962 27.1607 19.2224C27.5123 19.7487 27.7 20.3674 27.7 21.0003C27.6991 21.8487 27.3616 22.6622 26.7617 23.2621C26.1618 23.862 25.3484 24.1995 24.5 24.2004Z" fill="#DB162F"/>
<defs>
<radialGradient id="paint0_radial" cx="0" cy="0" r="1" gradientUnits="userSpaceOnUse" gradientTransform="translate(24 24) rotate(90) scale(24)">
<stop stop-color="white" stop-opacity="0.8"/>
<stop offset="1" stop-color="#F2F2F4" stop-opacity="0"/>
</radialGradient>
</defs>
</svg>
