<svg width="44" height="42" viewBox="0 0 44 42" fill="none" xmlns="http://www.w3.org/2000/svg">
<g clip-path="url(#clip0)">
<path d="M13.2279 18.5486C13.1377 18.3641 13.0516 18.1756 12.9655 17.9829C13.0516 18.1756 13.1377 18.3641 13.2279 18.5486Z" fill="#E9D0B7"/>
<path d="M31.0836 17.9951C31.0017 18.1837 30.9197 18.3681 30.8295 18.5485C30.9156 18.3681 31.0017 18.1837 31.0836 17.9951Z" fill="#E9D0B7"/>
<path d="M28.8825 21.3933C28.7267 21.5573 28.5709 21.7171 28.407 21.8729C28.5709 21.7171 28.7308 21.5573 28.8825 21.3933Z" fill="#E9D0B7"/>
<path d="M30.7311 18.7412C30.6245 18.9503 30.5139 19.1552 30.395 19.3561C30.5139 19.1552 30.6245 18.9503 30.7311 18.7412Z" fill="#E9D0B7"/>
<path d="M17.495 23.2586C17.327 23.1602 17.1589 23.0536 16.995 22.947C17.1589 23.0536 17.3229 23.1602 17.495 23.2586Z" fill="#E9D0B7"/>
<path d="M13.6624 19.356C13.5435 19.1552 13.4328 18.9461 13.3262 18.7371C13.4287 18.9461 13.5435 19.1552 13.6624 19.356Z" fill="#E9D0B7"/>
<path d="M27.0583 22.947C26.8985 23.0536 26.7304 23.1561 26.5664 23.2545C26.7304 23.1602 26.8985 23.0577 27.0583 22.947Z" fill="#E9D0B7"/>
<path d="M12.9163 17.8642C12.8261 17.6428 12.7401 17.4214 12.6622 17.1919C12.7401 17.4173 12.8261 17.6428 12.9163 17.8642Z" fill="#E9D0B7"/>
<path d="M31.3952 17.1958C31.3132 17.4213 31.2313 17.6467 31.1411 17.864C31.2313 17.6467 31.3132 17.4213 31.3952 17.1958Z" fill="#E9D0B7"/>
<path d="M28.284 21.9836C28.1446 22.1148 27.997 22.2378 27.8495 22.3608C28.0011 22.2378 28.1446 22.1107 28.284 21.9836Z" fill="#E9D0B7"/>
<path d="M29.3784 20.8235C29.2554 20.9711 29.1325 21.1186 29.0054 21.258C29.1325 21.1186 29.2554 20.9752 29.3784 20.8235Z" fill="#E9D0B7"/>
<path d="M15.0561 21.2622C14.9249 21.1188 14.7979 20.9671 14.6708 20.8154C14.7979 20.9671 14.9249 21.1188 15.0561 21.2622Z" fill="#E9D0B7"/>
<path d="M30.3171 19.4873C30.2147 19.6554 30.1122 19.8193 30.0015 19.9792C30.1081 19.8193 30.2147 19.6554 30.3171 19.4873Z" fill="#E9D0B7"/>
<path d="M27.7347 22.459C27.5584 22.5984 27.3781 22.7295 27.1936 22.8566C27.3781 22.7295 27.5584 22.5984 27.7347 22.459Z" fill="#E9D0B7"/>
<path d="M16.2079 22.3607C16.0563 22.2377 15.9087 22.1107 15.7652 21.9795C15.9087 22.1107 16.0563 22.2377 16.2079 22.3607Z" fill="#E9D0B7"/>
<path d="M16.8638 22.8568C16.6793 22.7297 16.499 22.5944 16.3227 22.4551C16.499 22.5944 16.6793 22.7297 16.8638 22.8568Z" fill="#E9D0B7"/>
<path d="M15.6504 21.8729C15.4865 21.7171 15.3266 21.5572 15.1708 21.3892C15.3266 21.5572 15.4865 21.7171 15.6504 21.8729Z" fill="#E9D0B7"/>
<path d="M14.5765 20.7005C14.433 20.5202 14.2937 20.3316 14.1625 20.1431C14.2978 20.3316 14.433 20.5202 14.5765 20.7005Z" fill="#E9D0B7"/>
<path d="M14.06 19.9831C13.9493 19.8151 13.8386 19.647 13.7362 19.4749C13.8386 19.6511 13.9452 19.8192 14.06 19.9831Z" fill="#E9D0B7"/>
<path d="M29.8908 20.1472C29.7597 20.3358 29.6244 20.5202 29.4809 20.6965C29.6244 20.5202 29.7597 20.3358 29.8908 20.1472Z" fill="#E9D0B7"/>
<path d="M22.0287 24.5046C23.656 24.5046 25.1891 24.0578 26.55 23.2666C26.5541 23.2625 26.5582 23.2625 26.5623 23.2584C26.7304 23.16 26.8944 23.0576 27.0542 22.951C27.0993 22.9223 27.1444 22.8895 27.1895 22.8608C27.374 22.7337 27.5543 22.6026 27.7306 22.4632C27.7716 22.4304 27.8085 22.3976 27.8495 22.3648C27.997 22.2459 28.1405 22.1189 28.284 21.9877C28.325 21.9508 28.3659 21.9139 28.4069 21.877C28.5709 21.7213 28.7267 21.5614 28.8824 21.3974C28.9234 21.3564 28.9603 21.3072 29.0013 21.2663C29.1284 21.1269 29.2514 20.9793 29.3743 20.8317C29.4112 20.7908 29.444 20.7457 29.4768 20.7047C29.6162 20.5243 29.7555 20.344 29.8867 20.1554C29.9236 20.1021 29.9605 20.0447 29.9974 19.9914C30.104 19.8316 30.2105 19.6635 30.313 19.4995C30.3417 19.4544 30.3704 19.4094 30.395 19.3643C30.5139 19.1634 30.6246 18.9584 30.7311 18.7494C30.7639 18.6838 30.7967 18.6182 30.8254 18.5567C30.9156 18.3764 30.9976 18.1919 31.0796 18.0034C31.1001 17.9583 31.1165 17.9173 31.137 17.8722C31.2271 17.6549 31.3132 17.4295 31.3911 17.204C31.4034 17.1712 31.4157 17.1384 31.428 17.1056C31.428 17.0974 31.428 17.0933 31.4321 17.0852C31.6452 16.0768 27.5748 17.3352 22.0246 17.3352C16.5072 17.3352 12.2687 15.798 12.6089 17.0565C12.613 17.0729 12.613 17.0852 12.6212 17.1015C12.6335 17.1343 12.6458 17.1671 12.6581 17.1999C12.736 17.4254 12.8221 17.6508 12.9122 17.8722C12.9286 17.9132 12.945 17.9501 12.9655 17.9911C13.0475 18.1837 13.1336 18.3723 13.2279 18.5567C13.2607 18.6182 13.2894 18.6838 13.3222 18.7453C13.4287 18.9543 13.5394 19.1634 13.6583 19.3643C13.6829 19.4053 13.7075 19.4421 13.7321 19.4831C13.8345 19.6553 13.9452 19.8275 14.0559 19.9914C14.0887 20.0447 14.1256 20.0939 14.1625 20.1472C14.2936 20.3399 14.433 20.5243 14.5765 20.7047C14.6052 20.7457 14.638 20.7826 14.6708 20.8195C14.7937 20.9752 14.9249 21.1228 15.0561 21.2663C15.093 21.3072 15.1299 21.3523 15.1709 21.3933C15.3266 21.5614 15.4865 21.7213 15.6505 21.877C15.6874 21.9139 15.7283 21.9467 15.7652 21.9795C15.9087 22.1107 16.0563 22.2377 16.2079 22.3607C16.2448 22.3935 16.2817 22.4222 16.3227 22.455C16.499 22.5944 16.6793 22.7296 16.8638 22.8567C16.9089 22.8854 16.9499 22.9141 16.995 22.9428C17.1589 23.0535 17.327 23.1559 17.4951 23.2543C17.5033 23.2584 17.5074 23.2625 17.5156 23.2666C18.8724 24.0578 20.4054 24.5046 22.0287 24.5046Z" fill="#DDDCE5"/>
<path d="M25.968 7.04639C25.6605 8.01788 25.0047 8.82951 24.148 9.3419C26.8903 11.1127 29.9769 12.4613 32.1413 12.7155C32.4528 12.7524 32.7479 12.7688 33.0185 12.7565C33.0185 11.0799 32.4241 8.59995 32.5061 8.89919C31.8461 8.57946 29.5301 7.54238 25.968 7.04639Z" fill="#DDDCE5"/>
<path d="M12.9082 5.64845C12.9205 5.62796 12.9327 5.60746 12.945 5.59106H12.9409C12.9287 5.60746 12.9205 5.62796 12.9082 5.64845Z" fill="#DDDCE5"/>
<path d="M31.1165 5.59531C29.1407 2.22173 25.8081 0 22.0287 0C18.2534 0 14.9249 2.21763 12.945 5.58711C14.2404 5.1444 15.9866 4.6812 18.1386 4.40656C17.9829 4.84107 17.8927 5.30837 17.8927 5.79616C17.8927 6.20198 17.9542 6.59549 18.0648 6.96441C18.0444 6.99721 18.028 7.03 18.0116 7.06279C13.9288 7.65717 11.6292 8.96889 11.5964 8.98528C11.5718 8.99758 11.5513 9.00578 11.5267 9.01808C11.2152 10.2027 11.0389 11.453 11.0389 12.7565C11.3095 12.8262 11.6046 12.8344 11.9121 12.7852C13.7854 12.4982 16.2448 10.1658 18.0648 6.97261C18.5731 8.68195 20.1513 9.92808 22.0246 9.92808C22.7993 9.92808 23.5249 9.71083 24.1438 9.33781C25.0006 8.82542 25.6564 8.01379 25.9639 7.0423C26.0868 6.64878 26.1565 6.23067 26.1565 5.79206C26.1565 5.30427 26.0663 4.83697 25.9106 4.39836C28.0216 4.66071 29.7596 5.10341 31.0796 5.52972C31.096 5.55841 31.1042 5.57891 31.1165 5.59531ZM22.0287 6.88653C21.4261 6.88653 20.9424 6.39873 20.9424 5.80026C20.9424 5.19769 21.4302 4.71399 22.0287 4.71399C22.6313 4.71399 23.115 5.20179 23.115 5.80026C23.115 6.39873 22.6313 6.88653 22.0287 6.88653Z" fill="#DDDCE5"/>
<path d="M23.1149 5.80014C23.1149 5.19756 22.6271 4.71387 22.0287 4.71387C21.4261 4.71387 20.9424 5.20166 20.9424 5.80014C20.9424 6.40271 21.4302 6.8864 22.0287 6.8864C22.6312 6.8864 23.1149 6.39861 23.1149 5.80014Z" fill="#D9D9D9"/>
<path d="M27.6117 27.8413L27.8946 27.911L27.6117 27.8413Z" fill="#F9F7F3"/>
<path d="M41.9176 31.2642L41.9258 31.2314L27.8617 27.8209L27.5789 27.7512H27.5748L22 29.4319L16.4334 27.7594L16.4293 27.7553H16.4252H16.4211H16.417L16.3227 27.7758L2.07416 31.2355L2.08235 31.2683L0 41.68H4.91895H21.9918H39.081H44.0041L41.9176 31.2642ZM20.7252 34.4533L16.4621 27.8004L20.7252 32.4324L20.9506 31.9118L21.504 32.4693L20.7252 34.4533ZM23.0535 31.9159L23.283 32.4365L27.5707 27.7758L23.2789 34.4574L22.5001 32.4693L23.0535 31.9159Z" fill="#DDDCE5"/>
</g>
<defs>
<clipPath id="clip0">
<rect width="44" height="41.6799" fill="white"/>
</clipPath>
</defs>
</svg>
