<svg width="48" height="48" viewBox="0 0 48 48" fill="none" xmlns="http://www.w3.org/2000/svg">
<circle cx="24" cy="24" r="24" fill="#F0F0F2"/>
<circle cx="24" cy="24" r="24" fill="url(#paint0_radial)"/>
<path d="M28.8205 32.0029C28.1233 32.0029 27.1438 31.7507 25.677 30.9313C23.8935 29.9311 22.5139 29.0077 20.74 27.2384C19.0296 25.5291 18.1973 24.4225 17.0324 22.3027C15.7164 19.9094 15.9408 18.6549 16.1915 18.1187C16.4902 17.4778 16.931 17.0945 17.5007 16.7141C17.8243 16.5021 18.1668 16.3203 18.5238 16.1711C18.5595 16.1558 18.5927 16.1411 18.6224 16.1279C18.7992 16.0482 19.0671 15.9279 19.4065 16.0565C19.6329 16.1415 19.8351 16.3154 20.1516 16.628C20.8007 17.2681 21.6877 18.6938 22.0149 19.3939C22.2346 19.8658 22.3799 20.1773 22.3803 20.5267C22.3803 20.9357 22.1745 21.2511 21.9248 21.5915C21.8781 21.6555 21.8316 21.7166 21.7866 21.7758C21.5148 22.1331 21.4551 22.2363 21.4944 22.4206C21.5741 22.7911 22.1681 23.8938 23.1444 24.8679C24.1207 25.842 25.1916 26.3986 25.5634 26.4779C25.7556 26.519 25.861 26.4568 26.2297 26.1753C26.2825 26.135 26.3368 26.0932 26.3936 26.0514C26.7744 25.7681 27.0752 25.5677 27.4746 25.5677H27.4767C27.8243 25.5677 28.1218 25.7184 28.6148 25.9671C29.2578 26.2914 30.7263 27.167 31.3703 27.8167C31.6836 28.1325 31.8583 28.334 31.9437 28.5601C32.0723 28.9005 31.9512 29.1674 31.8722 29.346C31.859 29.3756 31.8444 29.4081 31.829 29.4442C31.6787 29.8005 31.4958 30.1423 31.2828 30.4651C30.9031 31.0331 30.5184 31.4728 29.8761 31.7718C29.5463 31.9278 29.1854 32.0068 28.8205 32.0029Z" fill="#DB162F"/>
<defs>
<radialGradient id="paint0_radial" cx="0" cy="0" r="1" gradientUnits="userSpaceOnUse" gradientTransform="translate(24 24) rotate(90) scale(24)">
<stop stop-color="white" stop-opacity="0.8"/>
<stop offset="1" stop-color="#F2F2F4" stop-opacity="0"/>
</radialGradient>
</defs>
</svg>
