<svg width="52" height="52" viewBox="0 0 52 52" fill="none" xmlns="http://www.w3.org/2000/svg">
<circle cx="26" cy="26" r="26" fill="white"/>
<path d="M26 14.625C19.718 14.625 14.625 19.718 14.625 26C14.625 32.282 19.718 37.375 26 37.375C32.282 37.375 37.375 32.282 37.375 26C37.375 19.718 32.282 14.625 26 14.625ZM31.25 27.75H26C25.7679 27.75 25.5454 27.6578 25.3813 27.4937C25.2172 27.3296 25.125 27.1071 25.125 26.875V19C25.125 18.7679 25.2172 18.5454 25.3813 18.3813C25.5454 18.2172 25.7679 18.125 26 18.125C26.2321 18.125 26.4546 18.2172 26.6187 18.3813C26.7828 18.5454 26.875 18.7679 26.875 19V26H31.25C31.4821 26 31.7046 26.0922 31.8687 26.2563C32.0328 26.4204 32.125 26.6429 32.125 26.875C32.125 27.1071 32.0328 27.3296 31.8687 27.4937C31.7046 27.6578 31.4821 27.75 31.25 27.75Z" fill="#A7A5BD"/>
</svg>
