<svg width="52" height="52" viewBox="0 0 52 52" fill="none" xmlns="http://www.w3.org/2000/svg">
<circle cx="26" cy="26" r="26" fill="#DB162F"/>
<path d="M32.3282 36.5C31.4132 36.5 30.1279 36.1691 28.2032 35.0938C25.8627 33.7812 24.0524 32.5695 21.7246 30.2478C19.4802 28.0048 18.388 26.5527 16.8594 23.7711C15.1326 20.6305 15.4269 18.9842 15.756 18.2806C16.1479 17.4397 16.7263 16.9367 17.474 16.4375C17.8986 16.1593 18.348 15.9208 18.8165 15.725C18.8633 15.7048 18.9069 15.6856 18.9458 15.6683C19.1779 15.5637 19.5294 15.4058 19.9747 15.5745C20.2719 15.6861 20.5372 15.9144 20.9526 16.3245C21.8043 17.1645 22.9682 19.0353 23.3976 19.9541C23.6858 20.5733 23.8766 20.982 23.8771 21.4405C23.8771 21.9772 23.6071 22.3911 23.2794 22.8378C23.218 22.9217 23.1571 23.0019 23.098 23.0797C22.7413 23.5484 22.663 23.6839 22.7146 23.9258C22.8191 24.4119 23.5986 25.8589 24.8797 27.1372C26.1608 28.4155 27.5661 29.1458 28.0541 29.2498C28.3063 29.3037 28.4446 29.2222 28.9283 28.8528C28.9977 28.7998 29.069 28.745 29.1435 28.6902C29.6432 28.3184 30.0379 28.0555 30.5619 28.0555H30.5647C31.0208 28.0555 31.4113 28.2533 32.0582 28.5795C32.9019 29.0052 34.829 30.1541 35.6741 31.0067C36.0852 31.4211 36.3144 31.6855 36.4265 31.9822C36.5952 32.4289 36.4363 32.7791 36.3327 33.0134C36.3154 33.0523 36.2961 33.095 36.276 33.1423C36.0787 33.6099 35.8388 34.0584 35.5593 34.482C35.061 35.2273 34.5561 35.8044 33.7133 36.1967C33.2805 36.4014 32.8069 36.5051 32.3282 36.5Z" fill="white"/>
</svg>
