<svg width="36" height="36" viewBox="0 0 36 36" fill="none" xmlns="http://www.w3.org/2000/svg">
<path d="M12 0H0.75C0.335786 0 0 0.335786 0 0.75V12H1.5V1.5H12V0Z" fill="white"/>
<path d="M-5.24537e-07 24L-3.27835e-08 35.25C-1.46777e-08 35.6642 0.335786 36 0.75 36L12 36L12 34.5L1.5 34.5L1.5 24L-5.24537e-07 24Z" fill="white"/>
<path d="M24 36L35.25 36C35.6642 36 36 35.6642 36 35.25L36 24L34.5 24L34.5 34.5L24 34.5L24 36Z" fill="white"/>
<path d="M36 12L36 0.75C36 0.335786 35.6642 -1.46777e-08 35.25 -3.27835e-08L24 -5.24537e-07L24 1.5L34.5 1.5L34.5 12L36 12Z" fill="white"/>
</svg>
