<svg width="32" height="47" viewBox="0 0 32 47" fill="none" xmlns="http://www.w3.org/2000/svg">
<path d="M29.7325 18.0584C31.5844 12.5288 34.1092 4.95442 28.9009 1.73405C27.0148 0.566819 25.2101 0 23.384 0C21.3992 0 19.7532 0.684382 18.4286 1.23441C17.4855 1.62488 16.6753 1.96497 16.0023 1.96497C15.3336 1.96497 14.5148 1.62488 13.5718 1.23441C12.2472 0.684382 10.5968 0 8.61638 0C6.79026 0 4.98557 0.566819 3.09944 1.73405C-2.10887 4.95442 0.420266 12.5246 2.26782 18.0584C2.9194 20.0024 3.48095 21.6777 3.57954 22.7735C3.74244 24.5076 3.57097 26.6069 3.39093 28.8364C3.12944 32.1072 2.85081 35.4913 3.60526 38.1826C4.86554 42.7172 8.92931 46.0425 9.10077 46.1853C9.23366 46.2944 9.39656 46.349 9.55516 46.349C9.67948 46.349 9.80807 46.3154 9.91953 46.2525C10.181 46.1013 10.3139 45.8074 10.2582 45.5219C10.2453 45.4379 8.69783 37.2715 10.6354 32.0568C12.2386 27.7112 14.9821 25.4439 16.0023 25.4439C17.0225 25.4439 19.7617 27.7112 21.3735 32.0526C23.3025 37.2673 21.7636 45.4379 21.7422 45.5177C21.6907 45.8074 21.8236 46.1013 22.0808 46.2483C22.3423 46.3952 22.6681 46.3742 22.8996 46.1811C23.071 46.0425 27.1391 42.713 28.3994 38.1784C29.1452 35.4829 28.8752 32.103 28.6094 28.828C28.4337 26.6069 28.2622 24.5034 28.4251 22.7693C28.5237 21.6777 29.0852 19.9982 29.7325 18.0584Z" fill="#DDDCE5"/>
<path d="M7.14589 2.87183L8.42332 5.1601L10.7596 6.4113L8.42332 7.6625L7.14589 9.95077L5.86846 7.6625L3.53223 6.4113L5.86846 5.1601L7.14589 2.87183Z" fill="white"/>
<path d="M12.1656 9.60645L12.8557 10.8409L14.1117 11.5126L12.8557 12.1886L12.1656 13.423L11.4754 12.1886L10.2151 11.5126L11.4754 10.8409L12.1656 9.60645Z" fill="white"/>
<path d="M6.21568 12.449L6.90584 13.6834L8.16612 14.3594L6.90584 15.0312L6.21568 16.2656L5.52981 15.0312L4.26953 14.3594L5.52981 13.6834L6.21568 12.449Z" fill="white"/>
</svg>
