<svg width="32" height="48" viewBox="0 0 32 48" fill="none" xmlns="http://www.w3.org/2000/svg">
<g clip-path="url(#clip0)">
<path d="M29.7323 18.437C31.5842 12.7914 34.109 5.05827 28.9007 1.7704C27.0146 0.578701 25.2099 0 23.3838 0C21.399 0 19.753 0.698727 18.4284 1.26028C17.4853 1.65894 16.6708 2.00616 16.0021 2.00616C15.3334 2.00616 14.5146 1.65894 13.5716 1.26028C12.247 0.698727 10.5966 0 8.61618 0C6.79006 0 4.98537 0.578701 3.09924 1.7704C-2.10907 5.05827 0.420068 12.7914 2.26762 18.437C2.9192 20.4217 3.48075 22.1321 3.57934 23.2509C3.74224 25.0213 3.57077 27.1646 3.39073 29.4409C3.12924 32.7759 2.85061 36.2309 3.60078 38.983C4.86106 43.6126 8.92482 47.0076 9.09629 47.1534C9.22918 47.2648 9.39207 47.3206 9.55068 47.3206C9.67499 47.3206 9.80359 47.2863 9.91076 47.222C10.1722 47.0676 10.3051 46.7719 10.2494 46.4761C10.2365 46.3904 8.68906 38.0571 10.6266 32.7287C12.2384 28.292 14.9819 25.9772 16.0021 25.9772C17.0223 25.9772 19.7615 28.292 21.3733 32.7244C23.3066 38.0485 21.7634 46.3904 21.742 46.4718C21.6905 46.7676 21.8234 47.0676 22.0806 47.2177C22.3421 47.372 22.6679 47.3463 22.8994 47.1534C23.0708 47.0119 27.1389 43.6126 28.3992 38.983C29.1451 36.2352 28.875 32.7802 28.6092 29.4366C28.4335 27.1689 28.262 25.0213 28.4249 23.2509C28.5235 22.1321 29.085 20.4174 29.7323 18.437Z" fill="#DDDCE5"/>
<path d="M22.4236 11.3768H18.3084V7.26587H13.6916V11.3768H9.57642V15.9935H13.6916V20.1087H18.3084V15.9935H22.4236V11.3768Z" fill="white"/>
</g>
<defs>
<clipPath id="clip0">
<rect width="32" height="47.3163" fill="white"/>
</clipPath>
</defs>
</svg>
